<mxfile host="app.diagrams.net" modified="2021-11-05T11:00:25.821Z" agent="5.0 (Windows)" etag="GWkd09gY9iZ1QOWuyHqG" version="14.7.6" type="github">
  <diagram id="zDa9rTjy-oxJfnBAXKqy" name="Page-1">
    <mxGraphModel dx="1038" dy="536" grid="1" gridSize="10" guides="1" tooltips="1" connect="1" arrows="1" fold="1" page="1" pageScale="1" pageWidth="827" pageHeight="1169" math="0" shadow="0">
      <root>
        <mxCell id="0" />
        <mxCell id="1" parent="0" />
        <mxCell id="_BwwOzmuVJjrxb0-8K-R-1" value="&lt;font style=&quot;font-size: 14px&quot;&gt;&lt;b&gt;Beállítások integrálása&lt;br&gt;&lt;/b&gt;&lt;/font&gt;" style="text;html=1;strokeColor=none;fillColor=none;align=center;verticalAlign=middle;whiteSpace=wrap;rounded=0;" vertex="1" parent="1">
          <mxGeometry x="360" y="10" width="80" height="40" as="geometry" />
        </mxCell>
        <mxCell id="_BwwOzmuVJjrxb0-8K-R-2" value="" style="ellipse;whiteSpace=wrap;html=1;aspect=fixed;fillColor=#000000;" vertex="1" parent="1">
          <mxGeometry x="40" y="100" width="40" height="40" as="geometry" />
        </mxCell>
        <mxCell id="_BwwOzmuVJjrxb0-8K-R-3" value="Alkalmazás indítása" style="text;html=1;strokeColor=none;fillColor=none;align=center;verticalAlign=middle;whiteSpace=wrap;rounded=0;" vertex="1" parent="1">
          <mxGeometry x="20" y="150" width="80" height="30" as="geometry" />
        </mxCell>
        <mxCell id="_BwwOzmuVJjrxb0-8K-R-4" value="" style="endArrow=classic;html=1;exitX=1;exitY=0.5;exitDx=0;exitDy=0;entryX=0;entryY=0.5;entryDx=0;entryDy=0;" edge="1" parent="1" source="_BwwOzmuVJjrxb0-8K-R-2" target="_BwwOzmuVJjrxb0-8K-R-5">
          <mxGeometry width="50" height="50" relative="1" as="geometry">
            <mxPoint x="390" y="300" as="sourcePoint" />
            <mxPoint x="230" y="120" as="targetPoint" />
          </mxGeometry>
        </mxCell>
        <mxCell id="_BwwOzmuVJjrxb0-8K-R-5" value="&lt;div&gt;&lt;b&gt;Try: Parancssori argumentumok&lt;/b&gt;&lt;/div&gt;&lt;div&gt;&lt;b&gt;beolvasása&lt;/b&gt;&lt;/div&gt;" style="rounded=0;whiteSpace=wrap;html=1;fillColor=#FFFFFF;" vertex="1" parent="1">
          <mxGeometry x="130" y="90" width="120" height="60" as="geometry" />
        </mxCell>
        <mxCell id="_BwwOzmuVJjrxb0-8K-R-6" value="" style="endArrow=classic;html=1;exitX=1;exitY=0.5;exitDx=0;exitDy=0;" edge="1" parent="1" source="_BwwOzmuVJjrxb0-8K-R-5" target="_BwwOzmuVJjrxb0-8K-R-7">
          <mxGeometry width="50" height="50" relative="1" as="geometry">
            <mxPoint x="390" y="300" as="sourcePoint" />
            <mxPoint x="300" y="120" as="targetPoint" />
          </mxGeometry>
        </mxCell>
        <mxCell id="_BwwOzmuVJjrxb0-8K-R-7" value="&lt;b&gt;Voltak megadva argumentumok?&lt;/b&gt;" style="rhombus;whiteSpace=wrap;html=1;fillColor=#FFFFFF;" vertex="1" parent="1">
          <mxGeometry x="300" y="75" width="120" height="90" as="geometry" />
        </mxCell>
        <mxCell id="_BwwOzmuVJjrxb0-8K-R-9" value="" style="endArrow=classic;html=1;exitX=0.5;exitY=1;exitDx=0;exitDy=0;" edge="1" parent="1" source="_BwwOzmuVJjrxb0-8K-R-7">
          <mxGeometry width="50" height="50" relative="1" as="geometry">
            <mxPoint x="390" y="300" as="sourcePoint" />
            <mxPoint x="360" y="210" as="targetPoint" />
          </mxGeometry>
        </mxCell>
        <mxCell id="_BwwOzmuVJjrxb0-8K-R-11" value="Igen" style="text;html=1;strokeColor=none;fillColor=none;align=center;verticalAlign=middle;whiteSpace=wrap;rounded=0;" vertex="1" parent="1">
          <mxGeometry x="360" y="170" width="40" height="20" as="geometry" />
        </mxCell>
        <mxCell id="_BwwOzmuVJjrxb0-8K-R-12" value="&lt;b&gt;Beállítások arg. inicializálása&lt;br&gt;&lt;/b&gt;" style="rounded=0;whiteSpace=wrap;html=1;fillColor=#FFFFFF;" vertex="1" parent="1">
          <mxGeometry x="300" y="210" width="120" height="40" as="geometry" />
        </mxCell>
        <mxCell id="_BwwOzmuVJjrxb0-8K-R-13" value="" style="endArrow=classic;html=1;exitX=0.5;exitY=1;exitDx=0;exitDy=0;" edge="1" parent="1" source="_BwwOzmuVJjrxb0-8K-R-12" target="_BwwOzmuVJjrxb0-8K-R-14">
          <mxGeometry width="50" height="50" relative="1" as="geometry">
            <mxPoint x="390" y="300" as="sourcePoint" />
            <mxPoint x="360" y="290" as="targetPoint" />
          </mxGeometry>
        </mxCell>
        <mxCell id="_BwwOzmuVJjrxb0-8K-R-14" value="&lt;b&gt;Sikeres iniciálázás?&lt;br&gt;&lt;/b&gt;" style="rhombus;whiteSpace=wrap;html=1;fillColor=#FFFFFF;" vertex="1" parent="1">
          <mxGeometry x="304" y="290" width="110" height="70" as="geometry" />
        </mxCell>
        <mxCell id="_BwwOzmuVJjrxb0-8K-R-16" value="Igen" style="text;html=1;strokeColor=none;fillColor=none;align=center;verticalAlign=middle;whiteSpace=wrap;rounded=0;" vertex="1" parent="1">
          <mxGeometry x="260" y="300" width="40" height="20" as="geometry" />
        </mxCell>
        <mxCell id="_BwwOzmuVJjrxb0-8K-R-17" value="" style="endArrow=classic;html=1;exitX=0;exitY=0.5;exitDx=0;exitDy=0;" edge="1" parent="1" source="_BwwOzmuVJjrxb0-8K-R-14">
          <mxGeometry width="50" height="50" relative="1" as="geometry">
            <mxPoint x="390" y="350" as="sourcePoint" />
            <mxPoint x="200" y="325" as="targetPoint" />
          </mxGeometry>
        </mxCell>
        <mxCell id="_BwwOzmuVJjrxb0-8K-R-20" value="&lt;b&gt;Belépés az adatbázisba&lt;/b&gt;" style="rounded=0;whiteSpace=wrap;html=1;fillColor=#FFFFFF;" vertex="1" parent="1">
          <mxGeometry x="100" y="307.5" width="100" height="35" as="geometry" />
        </mxCell>
        <mxCell id="_BwwOzmuVJjrxb0-8K-R-21" value="" style="endArrow=classic;html=1;exitX=0.5;exitY=1;exitDx=0;exitDy=0;" edge="1" parent="1" source="_BwwOzmuVJjrxb0-8K-R-20">
          <mxGeometry width="50" height="50" relative="1" as="geometry">
            <mxPoint x="350" y="350" as="sourcePoint" />
            <mxPoint x="150" y="390" as="targetPoint" />
          </mxGeometry>
        </mxCell>
        <mxCell id="_BwwOzmuVJjrxb0-8K-R-23" value="&lt;div&gt;&lt;b&gt;Beszúrás a Settings táblába:&lt;/b&gt;&lt;/div&gt;&lt;div align=&quot;left&quot;&gt;Groupname-value 1&lt;/div&gt;&lt;div align=&quot;left&quot;&gt;Settingsname-value 2&lt;/div&gt;&lt;div align=&quot;left&quot;&gt;Valuetype-value 3&lt;/div&gt;&lt;div align=&quot;left&quot;&gt;Checks- value 4&lt;/div&gt;&lt;div align=&quot;left&quot;&gt;Optional- value 5&lt;/div&gt;&lt;div align=&quot;left&quot;&gt;DefaultValue- value 6&lt;br&gt;&lt;/div&gt;&lt;div align=&quot;left&quot;&gt;&lt;br&gt;&lt;/div&gt;" style="rounded=0;whiteSpace=wrap;html=1;fillColor=#FFFFFF;" vertex="1" parent="1">
          <mxGeometry x="60" y="390" width="170" height="120" as="geometry" />
        </mxCell>
        <mxCell id="_BwwOzmuVJjrxb0-8K-R-25" value="" style="endArrow=classic;html=1;exitX=1;exitY=0.5;exitDx=0;exitDy=0;" edge="1" parent="1" source="_BwwOzmuVJjrxb0-8K-R-23" target="_BwwOzmuVJjrxb0-8K-R-26">
          <mxGeometry width="50" height="50" relative="1" as="geometry">
            <mxPoint x="350" y="350" as="sourcePoint" />
            <mxPoint x="310" y="450" as="targetPoint" />
          </mxGeometry>
        </mxCell>
        <mxCell id="_BwwOzmuVJjrxb0-8K-R-26" value="" style="ellipse;whiteSpace=wrap;html=1;aspect=fixed;fillColor=#000000;" vertex="1" parent="1">
          <mxGeometry x="320" y="430" width="40" height="40" as="geometry" />
        </mxCell>
        <mxCell id="_BwwOzmuVJjrxb0-8K-R-27" value="Beállítások integrálva" style="text;html=1;strokeColor=none;fillColor=none;align=center;verticalAlign=middle;whiteSpace=wrap;rounded=0;" vertex="1" parent="1">
          <mxGeometry x="280" y="470" width="40" height="20" as="geometry" />
        </mxCell>
        <mxCell id="_BwwOzmuVJjrxb0-8K-R-28" value="" style="endArrow=classic;html=1;exitX=1;exitY=0.5;exitDx=0;exitDy=0;" edge="1" parent="1" source="_BwwOzmuVJjrxb0-8K-R-7">
          <mxGeometry width="50" height="50" relative="1" as="geometry">
            <mxPoint x="350" y="350" as="sourcePoint" />
            <mxPoint x="490" y="120" as="targetPoint" />
          </mxGeometry>
        </mxCell>
        <mxCell id="_BwwOzmuVJjrxb0-8K-R-29" value="Nem" style="text;html=1;strokeColor=none;fillColor=none;align=center;verticalAlign=middle;whiteSpace=wrap;rounded=0;" vertex="1" parent="1">
          <mxGeometry x="430" y="90" width="40" height="20" as="geometry" />
        </mxCell>
        <mxCell id="_BwwOzmuVJjrxb0-8K-R-30" value="&lt;b&gt;Try: Környezeti változóértékek beolvasása&lt;br&gt;&lt;/b&gt;" style="rounded=0;whiteSpace=wrap;html=1;fillColor=#FFFFFF;" vertex="1" parent="1">
          <mxGeometry x="490" y="90" width="120" height="60" as="geometry" />
        </mxCell>
        <mxCell id="_BwwOzmuVJjrxb0-8K-R-33" value="&lt;b&gt;Volt értelmezhető környezeti változó érték?&lt;br&gt;&lt;/b&gt;" style="rhombus;whiteSpace=wrap;html=1;fillColor=#FFFFFF;" vertex="1" parent="1">
          <mxGeometry x="480" y="167.5" width="140" height="125" as="geometry" />
        </mxCell>
        <mxCell id="_BwwOzmuVJjrxb0-8K-R-34" value="" style="endArrow=classic;html=1;exitX=0.5;exitY=1;exitDx=0;exitDy=0;" edge="1" parent="1" source="_BwwOzmuVJjrxb0-8K-R-30" target="_BwwOzmuVJjrxb0-8K-R-33">
          <mxGeometry width="50" height="50" relative="1" as="geometry">
            <mxPoint x="290" y="350" as="sourcePoint" />
            <mxPoint x="340" y="300" as="targetPoint" />
          </mxGeometry>
        </mxCell>
        <mxCell id="_BwwOzmuVJjrxb0-8K-R-40" value="" style="endArrow=classic;html=1;exitX=0.5;exitY=1;exitDx=0;exitDy=0;" edge="1" parent="1" source="_BwwOzmuVJjrxb0-8K-R-33" target="_BwwOzmuVJjrxb0-8K-R-41">
          <mxGeometry width="50" height="50" relative="1" as="geometry">
            <mxPoint x="290" y="350" as="sourcePoint" />
            <mxPoint x="550" y="330" as="targetPoint" />
          </mxGeometry>
        </mxCell>
        <mxCell id="_BwwOzmuVJjrxb0-8K-R-41" value="&lt;b&gt;Beállítások env. iniciálázása&lt;br&gt;&lt;/b&gt;" style="rounded=0;whiteSpace=wrap;html=1;fillColor=#FFFFFF;" vertex="1" parent="1">
          <mxGeometry x="490" y="320" width="120" height="40" as="geometry" />
        </mxCell>
        <mxCell id="_BwwOzmuVJjrxb0-8K-R-42" value="Igen" style="text;html=1;strokeColor=none;fillColor=none;align=center;verticalAlign=middle;whiteSpace=wrap;rounded=0;" vertex="1" parent="1">
          <mxGeometry x="560" y="290" width="40" height="20" as="geometry" />
        </mxCell>
        <mxCell id="_BwwOzmuVJjrxb0-8K-R-43" value="" style="endArrow=classic;html=1;exitX=0.5;exitY=1;exitDx=0;exitDy=0;" edge="1" parent="1" source="_BwwOzmuVJjrxb0-8K-R-41">
          <mxGeometry width="50" height="50" relative="1" as="geometry">
            <mxPoint x="290" y="350" as="sourcePoint" />
            <mxPoint x="550" y="390" as="targetPoint" />
          </mxGeometry>
        </mxCell>
        <mxCell id="_BwwOzmuVJjrxb0-8K-R-44" value="&lt;b&gt;Sikeres inicializálás?&lt;br&gt;&lt;/b&gt;" style="rhombus;whiteSpace=wrap;html=1;fillColor=#FFFFFF;" vertex="1" parent="1">
          <mxGeometry x="500" y="390" width="100" height="80" as="geometry" />
        </mxCell>
        <mxCell id="_BwwOzmuVJjrxb0-8K-R-45" value="" style="endArrow=classic;html=1;exitX=0;exitY=0.5;exitDx=0;exitDy=0;entryX=1;entryY=1;entryDx=0;entryDy=0;" edge="1" parent="1" source="_BwwOzmuVJjrxb0-8K-R-44" target="_BwwOzmuVJjrxb0-8K-R-20">
          <mxGeometry width="50" height="50" relative="1" as="geometry">
            <mxPoint x="290" y="350" as="sourcePoint" />
            <mxPoint x="340" y="300" as="targetPoint" />
          </mxGeometry>
        </mxCell>
        <mxCell id="_BwwOzmuVJjrxb0-8K-R-46" value="Igen" style="text;html=1;strokeColor=none;fillColor=none;align=center;verticalAlign=middle;whiteSpace=wrap;rounded=0;" vertex="1" parent="1">
          <mxGeometry x="450" y="420" width="40" height="20" as="geometry" />
        </mxCell>
        <mxCell id="_BwwOzmuVJjrxb0-8K-R-47" value="&lt;b&gt;Try: Beállítások lekérése a Settings táblából&lt;br&gt;&lt;/b&gt;" style="rounded=0;whiteSpace=wrap;html=1;fillColor=#FFFFFF;" vertex="1" parent="1">
          <mxGeometry x="650" y="90" width="120" height="60" as="geometry" />
        </mxCell>
        <mxCell id="_BwwOzmuVJjrxb0-8K-R-48" value="" style="endArrow=classic;html=1;exitX=1;exitY=0.5;exitDx=0;exitDy=0;entryX=0;entryY=0.5;entryDx=0;entryDy=0;" edge="1" parent="1" source="_BwwOzmuVJjrxb0-8K-R-33" target="_BwwOzmuVJjrxb0-8K-R-47">
          <mxGeometry width="50" height="50" relative="1" as="geometry">
            <mxPoint x="290" y="350" as="sourcePoint" />
            <mxPoint x="340" y="300" as="targetPoint" />
            <Array as="points">
              <mxPoint x="620" y="120" />
            </Array>
          </mxGeometry>
        </mxCell>
        <mxCell id="_BwwOzmuVJjrxb0-8K-R-49" value="Nem" style="text;html=1;strokeColor=none;fillColor=none;align=center;verticalAlign=middle;whiteSpace=wrap;rounded=0;" vertex="1" parent="1">
          <mxGeometry x="580" y="170" width="40" height="20" as="geometry" />
        </mxCell>
        <mxCell id="_BwwOzmuVJjrxb0-8K-R-53" value="&lt;b&gt;Sikeres lekérdezés?&lt;br&gt;&lt;/b&gt;" style="rhombus;whiteSpace=wrap;html=1;fillColor=#FFFFFF;" vertex="1" parent="1">
          <mxGeometry x="655" y="180" width="110" height="90" as="geometry" />
        </mxCell>
        <mxCell id="_BwwOzmuVJjrxb0-8K-R-55" value="" style="endArrow=classic;html=1;exitX=0.5;exitY=1;exitDx=0;exitDy=0;entryX=0.5;entryY=0;entryDx=0;entryDy=0;" edge="1" parent="1" source="_BwwOzmuVJjrxb0-8K-R-47" target="_BwwOzmuVJjrxb0-8K-R-53">
          <mxGeometry width="50" height="50" relative="1" as="geometry">
            <mxPoint x="290" y="350" as="sourcePoint" />
            <mxPoint x="340" y="300" as="targetPoint" />
          </mxGeometry>
        </mxCell>
        <mxCell id="_BwwOzmuVJjrxb0-8K-R-56" value="" style="endArrow=classic;html=1;exitX=0.5;exitY=1;exitDx=0;exitDy=0;" edge="1" parent="1" source="_BwwOzmuVJjrxb0-8K-R-53">
          <mxGeometry width="50" height="50" relative="1" as="geometry">
            <mxPoint x="290" y="350" as="sourcePoint" />
            <mxPoint x="710" y="310" as="targetPoint" />
          </mxGeometry>
        </mxCell>
        <mxCell id="_BwwOzmuVJjrxb0-8K-R-59" value="Igen" style="text;html=1;strokeColor=none;fillColor=none;align=center;verticalAlign=middle;whiteSpace=wrap;rounded=0;" vertex="1" parent="1">
          <mxGeometry x="760" y="200" width="40" height="20" as="geometry" />
        </mxCell>
        <mxCell id="_BwwOzmuVJjrxb0-8K-R-62" value="Nem" style="text;html=1;strokeColor=none;fillColor=none;align=center;verticalAlign=middle;whiteSpace=wrap;rounded=0;" vertex="1" parent="1">
          <mxGeometry x="720" y="272.5" width="40" height="20" as="geometry" />
        </mxCell>
        <mxCell id="_BwwOzmuVJjrxb0-8K-R-63" value="&lt;b&gt;Try: Megadott ini fájl megnyitása&lt;br&gt;&lt;/b&gt;" style="rounded=0;whiteSpace=wrap;html=1;fillColor=#FFFFFF;" vertex="1" parent="1">
          <mxGeometry x="665" y="310" width="100" height="50" as="geometry" />
        </mxCell>
        <mxCell id="_BwwOzmuVJjrxb0-8K-R-64" value="" style="endArrow=classic;html=1;exitX=0.5;exitY=1;exitDx=0;exitDy=0;" edge="1" parent="1" source="_BwwOzmuVJjrxb0-8K-R-63">
          <mxGeometry width="50" height="50" relative="1" as="geometry">
            <mxPoint x="350" y="350" as="sourcePoint" />
            <mxPoint x="715" y="390" as="targetPoint" />
          </mxGeometry>
        </mxCell>
        <mxCell id="_BwwOzmuVJjrxb0-8K-R-65" value="&lt;b&gt;Volt megadva Ini fájl?&lt;br&gt;&lt;/b&gt;" style="rhombus;whiteSpace=wrap;html=1;fillColor=#FFFFFF;" vertex="1" parent="1">
          <mxGeometry x="678.75" y="390" width="72.5" height="100" as="geometry" />
        </mxCell>
        <mxCell id="_BwwOzmuVJjrxb0-8K-R-68" value="Sikertelen integrálás" style="text;html=1;strokeColor=none;fillColor=none;align=center;verticalAlign=middle;whiteSpace=wrap;rounded=0;" vertex="1" parent="1">
          <mxGeometry x="180" y="170" width="40" height="20" as="geometry" />
        </mxCell>
        <mxCell id="_BwwOzmuVJjrxb0-8K-R-70" value="Nem" style="text;html=1;strokeColor=none;fillColor=none;align=center;verticalAlign=middle;whiteSpace=wrap;rounded=0;" vertex="1" parent="1">
          <mxGeometry x="730" y="490" width="40" height="20" as="geometry" />
        </mxCell>
        <mxCell id="_BwwOzmuVJjrxb0-8K-R-71" value="&lt;b&gt;Beállítások ini. inicializálása&lt;br&gt;&lt;/b&gt;" style="rounded=0;whiteSpace=wrap;html=1;fillColor=#FFFFFF;" vertex="1" parent="1">
          <mxGeometry x="565" y="475" width="100" height="40" as="geometry" />
        </mxCell>
        <mxCell id="_BwwOzmuVJjrxb0-8K-R-72" value="&lt;b&gt;Sikeres inicializálás?&lt;br&gt;&lt;/b&gt;" style="rhombus;whiteSpace=wrap;html=1;fillColor=#FFFFFF;" vertex="1" parent="1">
          <mxGeometry x="410" y="450" width="100" height="90" as="geometry" />
        </mxCell>
        <mxCell id="_BwwOzmuVJjrxb0-8K-R-75" value="" style="endArrow=classic;html=1;exitX=1;exitY=0.5;exitDx=0;exitDy=0;entryX=0;entryY=0.5;entryDx=0;entryDy=0;" edge="1" parent="1" source="_BwwOzmuVJjrxb0-8K-R-65" target="_BwwOzmuVJjrxb0-8K-R-89">
          <mxGeometry width="50" height="50" relative="1" as="geometry">
            <mxPoint x="350" y="350" as="sourcePoint" />
            <mxPoint x="770" y="480" as="targetPoint" />
            <Array as="points">
              <mxPoint x="770" y="440" />
              <mxPoint x="770" y="620" />
              <mxPoint x="20" y="620" />
              <mxPoint x="30" y="220" />
            </Array>
          </mxGeometry>
        </mxCell>
        <mxCell id="_BwwOzmuVJjrxb0-8K-R-77" value="Nem" style="text;html=1;strokeColor=none;fillColor=none;align=center;verticalAlign=middle;whiteSpace=wrap;rounded=0;" vertex="1" parent="1">
          <mxGeometry x="460" y="540" width="40" height="20" as="geometry" />
        </mxCell>
        <mxCell id="_BwwOzmuVJjrxb0-8K-R-78" value="" style="endArrow=classic;html=1;exitX=0;exitY=0.5;exitDx=0;exitDy=0;entryX=0.75;entryY=1;entryDx=0;entryDy=0;" edge="1" parent="1" source="_BwwOzmuVJjrxb0-8K-R-72" target="_BwwOzmuVJjrxb0-8K-R-20">
          <mxGeometry width="50" height="50" relative="1" as="geometry">
            <mxPoint x="350" y="350" as="sourcePoint" />
            <mxPoint x="400" y="300" as="targetPoint" />
            <Array as="points">
              <mxPoint x="414" y="450" />
            </Array>
          </mxGeometry>
        </mxCell>
        <mxCell id="_BwwOzmuVJjrxb0-8K-R-79" value="Igen" style="text;html=1;strokeColor=none;fillColor=none;align=center;verticalAlign=middle;whiteSpace=wrap;rounded=0;" vertex="1" parent="1">
          <mxGeometry x="374" y="450" width="40" height="20" as="geometry" />
        </mxCell>
        <mxCell id="_BwwOzmuVJjrxb0-8K-R-80" value="" style="endArrow=classic;html=1;exitX=0;exitY=0.5;exitDx=0;exitDy=0;entryX=1;entryY=0.5;entryDx=0;entryDy=0;" edge="1" parent="1" source="_BwwOzmuVJjrxb0-8K-R-71" target="_BwwOzmuVJjrxb0-8K-R-72">
          <mxGeometry width="50" height="50" relative="1" as="geometry">
            <mxPoint x="350" y="350" as="sourcePoint" />
            <mxPoint x="400" y="300" as="targetPoint" />
          </mxGeometry>
        </mxCell>
        <mxCell id="_BwwOzmuVJjrxb0-8K-R-84" value="Igen" style="text;html=1;strokeColor=none;fillColor=none;align=center;verticalAlign=middle;whiteSpace=wrap;rounded=0;" vertex="1" parent="1">
          <mxGeometry x="635" y="440" width="40" height="20" as="geometry" />
        </mxCell>
        <mxCell id="_BwwOzmuVJjrxb0-8K-R-85" value="&lt;b&gt;Beállítások db. inicializálása&lt;br&gt;&lt;/b&gt;" style="rounded=0;whiteSpace=wrap;html=1;fillColor=#FFFFFF;" vertex="1" parent="1">
          <mxGeometry x="290" y="545" width="100" height="40" as="geometry" />
        </mxCell>
        <mxCell id="_BwwOzmuVJjrxb0-8K-R-86" value="" style="endArrow=classic;html=1;exitX=0.5;exitY=0;exitDx=0;exitDy=0;entryX=0.5;entryY=1;entryDx=0;entryDy=0;" edge="1" parent="1" source="_BwwOzmuVJjrxb0-8K-R-85" target="_BwwOzmuVJjrxb0-8K-R-26">
          <mxGeometry width="50" height="50" relative="1" as="geometry">
            <mxPoint x="350" y="350" as="sourcePoint" />
            <mxPoint x="400" y="300" as="targetPoint" />
          </mxGeometry>
        </mxCell>
        <mxCell id="_BwwOzmuVJjrxb0-8K-R-87" value="" style="endArrow=classic;html=1;exitX=1;exitY=0.5;exitDx=0;exitDy=0;entryX=1;entryY=0.5;entryDx=0;entryDy=0;" edge="1" parent="1" source="_BwwOzmuVJjrxb0-8K-R-53" target="_BwwOzmuVJjrxb0-8K-R-85">
          <mxGeometry width="50" height="50" relative="1" as="geometry">
            <mxPoint x="350" y="350" as="sourcePoint" />
            <mxPoint x="400" y="300" as="targetPoint" />
            <Array as="points">
              <mxPoint x="810" y="225" />
              <mxPoint x="810" y="565" />
            </Array>
          </mxGeometry>
        </mxCell>
        <mxCell id="_BwwOzmuVJjrxb0-8K-R-89" value="" style="ellipse;whiteSpace=wrap;html=1;aspect=fixed;fillColor=#000000;" vertex="1" parent="1">
          <mxGeometry x="180" y="200" width="40" height="40" as="geometry" />
        </mxCell>
        <mxCell id="_BwwOzmuVJjrxb0-8K-R-90" value="" style="endArrow=classic;html=1;exitX=0;exitY=0;exitDx=0;exitDy=0;entryX=1;entryY=0.5;entryDx=0;entryDy=0;" edge="1" parent="1" source="_BwwOzmuVJjrxb0-8K-R-14" target="_BwwOzmuVJjrxb0-8K-R-89">
          <mxGeometry width="50" height="50" relative="1" as="geometry">
            <mxPoint x="350" y="370" as="sourcePoint" />
            <mxPoint x="400" y="320" as="targetPoint" />
            <Array as="points">
              <mxPoint x="270" y="220" />
            </Array>
          </mxGeometry>
        </mxCell>
        <mxCell id="_BwwOzmuVJjrxb0-8K-R-91" value="Nem" style="text;html=1;strokeColor=none;fillColor=none;align=center;verticalAlign=middle;whiteSpace=wrap;rounded=0;" vertex="1" parent="1">
          <mxGeometry x="310" y="270" width="40" height="20" as="geometry" />
        </mxCell>
        <mxCell id="_BwwOzmuVJjrxb0-8K-R-92" value="" style="endArrow=classic;html=1;exitX=0;exitY=0;exitDx=0;exitDy=0;entryX=0.5;entryY=1;entryDx=0;entryDy=0;" edge="1" parent="1" source="_BwwOzmuVJjrxb0-8K-R-44" target="_BwwOzmuVJjrxb0-8K-R-89">
          <mxGeometry width="50" height="50" relative="1" as="geometry">
            <mxPoint x="350" y="370" as="sourcePoint" />
            <mxPoint x="400" y="320" as="targetPoint" />
            <Array as="points">
              <mxPoint x="240" y="340" />
            </Array>
          </mxGeometry>
        </mxCell>
        <mxCell id="_BwwOzmuVJjrxb0-8K-R-95" value="Nem" style="text;html=1;strokeColor=none;fillColor=none;align=center;verticalAlign=middle;whiteSpace=wrap;rounded=0;" vertex="1" parent="1">
          <mxGeometry x="480" y="380" width="40" height="20" as="geometry" />
        </mxCell>
        <mxCell id="_BwwOzmuVJjrxb0-8K-R-98" value="" style="endArrow=classic;html=1;exitX=0.5;exitY=1;exitDx=0;exitDy=0;entryX=0;entryY=1;entryDx=0;entryDy=0;" edge="1" parent="1" source="_BwwOzmuVJjrxb0-8K-R-72" target="_BwwOzmuVJjrxb0-8K-R-89">
          <mxGeometry width="50" height="50" relative="1" as="geometry">
            <mxPoint x="350" y="370" as="sourcePoint" />
            <mxPoint x="464" y="610" as="targetPoint" />
            <Array as="points">
              <mxPoint x="460" y="600" />
              <mxPoint x="40" y="600" />
              <mxPoint x="40" y="240" />
            </Array>
          </mxGeometry>
        </mxCell>
        <mxCell id="_BwwOzmuVJjrxb0-8K-R-100" value="" style="endArrow=classic;html=1;entryX=0.5;entryY=0;entryDx=0;entryDy=0;" edge="1" parent="1" target="_BwwOzmuVJjrxb0-8K-R-71">
          <mxGeometry width="50" height="50" relative="1" as="geometry">
            <mxPoint x="679" y="440" as="sourcePoint" />
            <mxPoint x="400" y="320" as="targetPoint" />
            <Array as="points">
              <mxPoint x="615" y="440" />
            </Array>
          </mxGeometry>
        </mxCell>
      </root>
    </mxGraphModel>
  </diagram>
</mxfile>
